<svg xmlns="http://www.w3.org/2000/svg" xmlns:xlink="http://www.w3.org/1999/xlink" width="320" zoomAndPan="magnify" viewBox="0 0 240 239.999995" height="320" preserveAspectRatio="xMidYMid meet" version="1.0"><defs><g/><clipPath id="03636d9854"><path d="M 4.511719 43.632812 L 235.511719 43.632812 L 235.511719 196.316406 L 4.511719 196.316406 Z M 4.511719 43.632812 " clip-rule="nonzero"/></clipPath><clipPath id="c159833b51"><path d="M 4.511719 110.605469 L 235.511719 110.605469 L 235.511719 196.316406 L 4.511719 196.316406 Z M 4.511719 110.605469 " clip-rule="nonzero"/></clipPath><clipPath id="a1d35796f2"><path d="M 4.511719 43.488281 L 235.511719 43.488281 L 235.511719 126 L 4.511719 126 Z M 4.511719 43.488281 " clip-rule="nonzero"/></clipPath><clipPath id="b11a93b094"><path d="M 4.511719 43.488281 L 235.511719 43.488281 L 235.511719 134 L 4.511719 134 Z M 4.511719 43.488281 " clip-rule="nonzero"/></clipPath></defs><g clip-path="url(#03636d9854)"><path fill="#f0f0f0" d="M 4.511719 196.316406 L 235.511719 196.316406 L 235.511719 43.628906 L 4.511719 43.628906 Z M 4.511719 196.316406 " fill-opacity="1" fill-rule="nonzero"/></g><g clip-path="url(#c159833b51)"><path fill="#e1e1e1" d="M 97.992188 118.308594 L 4.511719 196.316406 L 235.511719 196.316406 L 142.035156 118.308594 C 129.296875 108.328125 110.726562 108.328125 97.992188 118.308594 " fill-opacity="1" fill-rule="nonzero"/></g><g clip-path="url(#a1d35796f2)"><path fill="#d8d4c1" d="M 150.292969 125.203125 L 142.035156 118.308594 C 135.664062 113.316406 127.839844 110.820312 120.011719 110.820312 C 112.183594 110.820312 104.359375 113.316406 97.992188 118.308594 L 89.730469 125.203125 L 4.511719 43.628906 L 235.511719 43.628906 L 150.292969 125.203125 " fill-opacity="1" fill-rule="nonzero"/></g><path fill="#ccc8b5" d="M 120.011719 141.691406 C 112.183594 141.691406 104.359375 138.832031 97.992188 133.105469 L 89.730469 125.203125 L 97.992188 118.308594 C 104.359375 113.316406 112.183594 110.820312 120.011719 110.820312 C 127.839844 110.820312 135.664062 113.316406 142.035156 118.308594 L 150.292969 125.203125 L 142.035156 133.105469 C 135.664062 138.832031 127.839844 141.691406 120.011719 141.691406 " fill-opacity="1" fill-rule="nonzero"/><g clip-path="url(#b11a93b094)"><path fill="#f0f0f0" d="M 97.992188 125.800781 L 4.511719 43.628906 L 235.511719 43.628906 L 142.035156 125.800781 C 129.296875 136.316406 110.726562 136.316406 97.992188 125.800781 " fill-opacity="1" fill-rule="nonzero"/></g><g fill="#eacad0" fill-opacity="0.302"><g transform="translate(95.510138, 90.799813)"><g><path d="M 5.703125 -3.640625 L 3.25 -6.140625 L 5.703125 -6.140625 Z M 3 -0.625 C 3.039062 -0.613281 3.082031 -0.609375 3.125 -0.609375 C 3.175781 -0.609375 3.25 -0.609375 3.34375 -0.609375 C 3.832031 -0.609375 4.265625 -0.726562 4.640625 -0.96875 C 5.023438 -1.21875 5.378906 -1.597656 5.703125 -2.109375 L 5.703125 -0.953125 C 5.328125 -0.578125 4.941406 -0.304688 4.546875 -0.140625 C 4.148438 0.0234375 3.679688 0.109375 3.140625 0.109375 C 2.210938 0.109375 1.484375 -0.164062 0.953125 -0.71875 C 0.429688 -1.28125 0.171875 -2.046875 0.171875 -3.015625 C 0.171875 -3.960938 0.414062 -4.710938 0.90625 -5.265625 C 1.40625 -5.816406 2.101562 -6.109375 3 -6.140625 Z M 3 -0.625 "/></g></g></g><g fill="#eacad0" fill-opacity="0.302"><g transform="translate(101.422533, 90.799813)"><g><path d="M 2.71875 0 L 0.328125 0 L 0.328125 -8.578125 L 2.71875 -8.578125 Z M 2.71875 0 "/></g></g></g><g fill="#eacad0" fill-opacity="0.302"><g transform="translate(104.466192, 90.799813)"><g><path d="M 2.8125 -7.65625 C 2.8125 -7.351562 2.6875 -7.085938 2.4375 -6.859375 C 2.1875 -6.640625 1.878906 -6.53125 1.515625 -6.53125 C 1.160156 -6.53125 0.859375 -6.640625 0.609375 -6.859375 C 0.359375 -7.085938 0.234375 -7.351562 0.234375 -7.65625 C 0.234375 -7.945312 0.359375 -8.195312 0.609375 -8.40625 C 0.859375 -8.625 1.160156 -8.734375 1.515625 -8.734375 C 1.867188 -8.734375 2.171875 -8.625 2.421875 -8.40625 C 2.679688 -8.195312 2.8125 -7.945312 2.8125 -7.65625 Z M 2.71875 0 L 0.328125 0 L 0.328125 -6.140625 L 2.71875 -6.140625 Z M 2.71875 0 "/></g></g></g><g fill="#eacad0" fill-opacity="0.302"><g transform="translate(107.509851, 90.799813)"><g><path d="M 5.703125 -3.640625 L 3.25 -6.140625 L 5.703125 -6.140625 Z M 3 -0.625 C 3.039062 -0.613281 3.082031 -0.609375 3.125 -0.609375 C 3.175781 -0.609375 3.25 -0.609375 3.34375 -0.609375 C 3.832031 -0.609375 4.265625 -0.726562 4.640625 -0.96875 C 5.023438 -1.21875 5.378906 -1.597656 5.703125 -2.109375 L 5.703125 -0.953125 C 5.328125 -0.578125 4.941406 -0.304688 4.546875 -0.140625 C 4.148438 0.0234375 3.679688 0.109375 3.140625 0.109375 C 2.210938 0.109375 1.484375 -0.164062 0.953125 -0.71875 C 0.429688 -1.28125 0.171875 -2.046875 0.171875 -3.015625 C 0.171875 -3.960938 0.414062 -4.710938 0.90625 -5.265625 C 1.40625 -5.816406 2.101562 -6.109375 3 -6.140625 Z M 3 -0.625 "/></g></g></g><g fill="#eacad0" fill-opacity="0.302"><g transform="translate(113.422246, 90.799813)"><g><path d="M 2.71875 0 L 0.328125 0 L 0.328125 -8.578125 L 2.71875 -8.578125 Z M 6.53125 0 L 3.375 0 L 3.375 -6.140625 L 6.25 -6.140625 L 3.734375 -3.21875 Z M 6.53125 0 "/></g></g></g><g fill="#eacad0" fill-opacity="0.302"><g transform="translate(119.497902, 90.799813)"><g/></g></g><g fill="#eacad0" fill-opacity="0.302"><g transform="translate(123.235428, 90.799813)"><g><path d="M 2.71875 0 L 0.328125 0 L 0.328125 -8.578125 L 2.71875 -8.578125 Z M 3.375 -6.140625 L 3.65625 -6.140625 C 4.488281 -6.140625 5.046875 -5.988281 5.328125 -5.6875 C 5.609375 -5.394531 5.75 -4.800781 5.75 -3.90625 L 5.75 0 L 3.375 0 Z M 3.375 -6.140625 "/></g></g></g><g fill="#eacad0" fill-opacity="0.302"><g transform="translate(129.311085, 90.799813)"><g><path d="M 5.59375 -3.21875 L 3.40625 -3.21875 L 3.40625 -6.25 C 4.164062 -6.207031 4.71875 -5.945312 5.0625 -5.46875 C 5.40625 -5 5.582031 -4.25 5.59375 -3.21875 Z M 2.796875 -0.640625 L 2.828125 -0.625 C 3.015625 -0.59375 3.160156 -0.578125 3.265625 -0.578125 C 3.722656 -0.578125 4.132812 -0.707031 4.5 -0.96875 C 4.875 -1.226562 5.21875 -1.625 5.53125 -2.15625 L 5.53125 -0.984375 C 5.1875 -0.609375 4.820312 -0.332031 4.4375 -0.15625 C 4.0625 0.0195312 3.640625 0.109375 3.171875 0.109375 C 2.210938 0.109375 1.472656 -0.164062 0.953125 -0.71875 C 0.429688 -1.269531 0.171875 -2.050781 0.171875 -3.0625 C 0.171875 -4.007812 0.398438 -4.757812 0.859375 -5.3125 C 1.328125 -5.875 1.972656 -6.1875 2.796875 -6.25 Z M 2.796875 -0.640625 "/></g></g></g><g fill="#eacad0" fill-opacity="0.302"><g transform="translate(135.112701, 90.799813)"><g><path d="M 2.71875 -6.140625 L 2.71875 0 L 0.328125 0 L 0.328125 -6.140625 Z M 5.375 -5.0625 C 5.375 -4.738281 5.253906 -4.457031 5.015625 -4.21875 C 4.773438 -3.988281 4.492188 -3.875 4.171875 -3.875 C 3.847656 -3.875 3.566406 -3.988281 3.328125 -4.21875 C 3.097656 -4.457031 2.984375 -4.738281 2.984375 -5.0625 C 2.984375 -5.382812 3.097656 -5.660156 3.328125 -5.890625 C 3.566406 -6.128906 3.847656 -6.25 4.171875 -6.25 C 4.492188 -6.25 4.773438 -6.128906 5.015625 -5.890625 C 5.253906 -5.660156 5.375 -5.382812 5.375 -5.0625 Z M 5.375 -5.0625 "/></g></g></g><g fill="#eacad0" fill-opacity="0.302"><g transform="translate(140.581958, 90.799813)"><g><path d="M 5.59375 -3.21875 L 3.40625 -3.21875 L 3.40625 -6.25 C 4.164062 -6.207031 4.71875 -5.945312 5.0625 -5.46875 C 5.40625 -5 5.582031 -4.25 5.59375 -3.21875 Z M 2.796875 -0.640625 L 2.828125 -0.625 C 3.015625 -0.59375 3.160156 -0.578125 3.265625 -0.578125 C 3.722656 -0.578125 4.132812 -0.707031 4.5 -0.96875 C 4.875 -1.226562 5.21875 -1.625 5.53125 -2.15625 L 5.53125 -0.984375 C 5.1875 -0.609375 4.820312 -0.332031 4.4375 -0.15625 C 4.0625 0.0195312 3.640625 0.109375 3.171875 0.109375 C 2.210938 0.109375 1.472656 -0.164062 0.953125 -0.71875 C 0.429688 -1.269531 0.171875 -2.050781 0.171875 -3.0625 C 0.171875 -4.007812 0.398438 -4.757812 0.859375 -5.3125 C 1.328125 -5.875 1.972656 -6.1875 2.796875 -6.25 Z M 2.796875 -0.640625 "/></g></g></g><g fill="#eacad0" fill-opacity="0.502"><g transform="translate(95.033025, 90.440281)"><g><path d="M 5.703125 -3.640625 L 3.25 -6.140625 L 5.703125 -6.140625 Z M 3 -0.625 C 3.039062 -0.613281 3.082031 -0.609375 3.125 -0.609375 C 3.175781 -0.609375 3.25 -0.609375 3.34375 -0.609375 C 3.832031 -0.609375 4.265625 -0.726562 4.640625 -0.96875 C 5.023438 -1.21875 5.378906 -1.597656 5.703125 -2.109375 L 5.703125 -0.953125 C 5.328125 -0.578125 4.941406 -0.304688 4.546875 -0.140625 C 4.148438 0.0234375 3.679688 0.109375 3.140625 0.109375 C 2.210938 0.109375 1.484375 -0.164062 0.953125 -0.71875 C 0.429688 -1.28125 0.171875 -2.046875 0.171875 -3.015625 C 0.171875 -3.960938 0.414062 -4.710938 0.90625 -5.265625 C 1.40625 -5.816406 2.101562 -6.109375 3 -6.140625 Z M 3 -0.625 "/></g></g></g><g fill="#eacad0" fill-opacity="0.502"><g transform="translate(100.94542, 90.440281)"><g><path d="M 2.71875 0 L 0.328125 0 L 0.328125 -8.578125 L 2.71875 -8.578125 Z M 2.71875 0 "/></g></g></g><g fill="#eacad0" fill-opacity="0.502"><g transform="translate(103.989079, 90.440281)"><g><path d="M 2.8125 -7.65625 C 2.8125 -7.351562 2.6875 -7.085938 2.4375 -6.859375 C 2.1875 -6.640625 1.878906 -6.53125 1.515625 -6.53125 C 1.160156 -6.53125 0.859375 -6.640625 0.609375 -6.859375 C 0.359375 -7.085938 0.234375 -7.351562 0.234375 -7.65625 C 0.234375 -7.945312 0.359375 -8.195312 0.609375 -8.40625 C 0.859375 -8.625 1.160156 -8.734375 1.515625 -8.734375 C 1.867188 -8.734375 2.171875 -8.625 2.421875 -8.40625 C 2.679688 -8.195312 2.8125 -7.945312 2.8125 -7.65625 Z M 2.71875 0 L 0.328125 0 L 0.328125 -6.140625 L 2.71875 -6.140625 Z M 2.71875 0 "/></g></g></g><g fill="#eacad0" fill-opacity="0.502"><g transform="translate(107.032738, 90.440281)"><g><path d="M 5.703125 -3.640625 L 3.25 -6.140625 L 5.703125 -6.140625 Z M 3 -0.625 C 3.039062 -0.613281 3.082031 -0.609375 3.125 -0.609375 C 3.175781 -0.609375 3.25 -0.609375 3.34375 -0.609375 C 3.832031 -0.609375 4.265625 -0.726562 4.640625 -0.96875 C 5.023438 -1.21875 5.378906 -1.597656 5.703125 -2.109375 L 5.703125 -0.953125 C 5.328125 -0.578125 4.941406 -0.304688 4.546875 -0.140625 C 4.148438 0.0234375 3.679688 0.109375 3.140625 0.109375 C 2.210938 0.109375 1.484375 -0.164062 0.953125 -0.71875 C 0.429688 -1.28125 0.171875 -2.046875 0.171875 -3.015625 C 0.171875 -3.960938 0.414062 -4.710938 0.90625 -5.265625 C 1.40625 -5.816406 2.101562 -6.109375 3 -6.140625 Z M 3 -0.625 "/></g></g></g><g fill="#eacad0" fill-opacity="0.502"><g transform="translate(112.945133, 90.440281)"><g><path d="M 2.71875 0 L 0.328125 0 L 0.328125 -8.578125 L 2.71875 -8.578125 Z M 6.53125 0 L 3.375 0 L 3.375 -6.140625 L 6.25 -6.140625 L 3.734375 -3.21875 Z M 6.53125 0 "/></g></g></g><g fill="#eacad0" fill-opacity="0.502"><g transform="translate(119.02079, 90.440281)"><g/></g></g><g fill="#eacad0" fill-opacity="0.502"><g transform="translate(122.758315, 90.440281)"><g><path d="M 2.71875 0 L 0.328125 0 L 0.328125 -8.578125 L 2.71875 -8.578125 Z M 3.375 -6.140625 L 3.65625 -6.140625 C 4.488281 -6.140625 5.046875 -5.988281 5.328125 -5.6875 C 5.609375 -5.394531 5.75 -4.800781 5.75 -3.90625 L 5.75 0 L 3.375 0 Z M 3.375 -6.140625 "/></g></g></g><g fill="#eacad0" fill-opacity="0.502"><g transform="translate(128.833972, 90.440281)"><g><path d="M 5.59375 -3.21875 L 3.40625 -3.21875 L 3.40625 -6.25 C 4.164062 -6.207031 4.71875 -5.945312 5.0625 -5.46875 C 5.40625 -5 5.582031 -4.25 5.59375 -3.21875 Z M 2.796875 -0.640625 L 2.828125 -0.625 C 3.015625 -0.59375 3.160156 -0.578125 3.265625 -0.578125 C 3.722656 -0.578125 4.132812 -0.707031 4.5 -0.96875 C 4.875 -1.226562 5.21875 -1.625 5.53125 -2.15625 L 5.53125 -0.984375 C 5.1875 -0.609375 4.820312 -0.332031 4.4375 -0.15625 C 4.0625 0.0195312 3.640625 0.109375 3.171875 0.109375 C 2.210938 0.109375 1.472656 -0.164062 0.953125 -0.71875 C 0.429688 -1.269531 0.171875 -2.050781 0.171875 -3.0625 C 0.171875 -4.007812 0.398438 -4.757812 0.859375 -5.3125 C 1.328125 -5.875 1.972656 -6.1875 2.796875 -6.25 Z M 2.796875 -0.640625 "/></g></g></g><g fill="#eacad0" fill-opacity="0.502"><g transform="translate(134.635588, 90.440281)"><g><path d="M 2.71875 -6.140625 L 2.71875 0 L 0.328125 0 L 0.328125 -6.140625 Z M 5.375 -5.0625 C 5.375 -4.738281 5.253906 -4.457031 5.015625 -4.21875 C 4.773438 -3.988281 4.492188 -3.875 4.171875 -3.875 C 3.847656 -3.875 3.566406 -3.988281 3.328125 -4.21875 C 3.097656 -4.457031 2.984375 -4.738281 2.984375 -5.0625 C 2.984375 -5.382812 3.097656 -5.660156 3.328125 -5.890625 C 3.566406 -6.128906 3.847656 -6.25 4.171875 -6.25 C 4.492188 -6.25 4.773438 -6.128906 5.015625 -5.890625 C 5.253906 -5.660156 5.375 -5.382812 5.375 -5.0625 Z M 5.375 -5.0625 "/></g></g></g><g fill="#eacad0" fill-opacity="0.502"><g transform="translate(140.104845, 90.440281)"><g><path d="M 5.59375 -3.21875 L 3.40625 -3.21875 L 3.40625 -6.25 C 4.164062 -6.207031 4.71875 -5.945312 5.0625 -5.46875 C 5.40625 -5 5.582031 -4.25 5.59375 -3.21875 Z M 2.796875 -0.640625 L 2.828125 -0.625 C 3.015625 -0.59375 3.160156 -0.578125 3.265625 -0.578125 C 3.722656 -0.578125 4.132812 -0.707031 4.5 -0.96875 C 4.875 -1.226562 5.21875 -1.625 5.53125 -2.15625 L 5.53125 -0.984375 C 5.1875 -0.609375 4.820312 -0.332031 4.4375 -0.15625 C 4.0625 0.0195312 3.640625 0.109375 3.171875 0.109375 C 2.210938 0.109375 1.472656 -0.164062 0.953125 -0.71875 C 0.429688 -1.269531 0.171875 -2.050781 0.171875 -3.0625 C 0.171875 -4.007812 0.398438 -4.757812 0.859375 -5.3125 C 1.328125 -5.875 1.972656 -6.1875 2.796875 -6.25 Z M 2.796875 -0.640625 "/></g></g></g><g fill="#69b1c8" fill-opacity="1"><g transform="translate(94.55591, 90.080752)"><g><path d="M 5.703125 -3.640625 L 3.25 -6.140625 L 5.703125 -6.140625 Z M 3 -0.625 C 3.039062 -0.613281 3.082031 -0.609375 3.125 -0.609375 C 3.175781 -0.609375 3.25 -0.609375 3.34375 -0.609375 C 3.832031 -0.609375 4.265625 -0.726562 4.640625 -0.96875 C 5.023438 -1.21875 5.378906 -1.597656 5.703125 -2.109375 L 5.703125 -0.953125 C 5.328125 -0.578125 4.941406 -0.304688 4.546875 -0.140625 C 4.148438 0.0234375 3.679688 0.109375 3.140625 0.109375 C 2.210938 0.109375 1.484375 -0.164062 0.953125 -0.71875 C 0.429688 -1.28125 0.171875 -2.046875 0.171875 -3.015625 C 0.171875 -3.960938 0.414062 -4.710938 0.90625 -5.265625 C 1.40625 -5.816406 2.101562 -6.109375 3 -6.140625 Z M 3 -0.625 "/></g></g></g><g fill="#69b1c8" fill-opacity="1"><g transform="translate(100.468305, 90.080752)"><g><path d="M 2.71875 0 L 0.328125 0 L 0.328125 -8.578125 L 2.71875 -8.578125 Z M 2.71875 0 "/></g></g></g><g fill="#69b1c8" fill-opacity="1"><g transform="translate(103.511964, 90.080752)"><g><path d="M 2.8125 -7.65625 C 2.8125 -7.351562 2.6875 -7.085938 2.4375 -6.859375 C 2.1875 -6.640625 1.878906 -6.53125 1.515625 -6.53125 C 1.160156 -6.53125 0.859375 -6.640625 0.609375 -6.859375 C 0.359375 -7.085938 0.234375 -7.351562 0.234375 -7.65625 C 0.234375 -7.945312 0.359375 -8.195312 0.609375 -8.40625 C 0.859375 -8.625 1.160156 -8.734375 1.515625 -8.734375 C 1.867188 -8.734375 2.171875 -8.625 2.421875 -8.40625 C 2.679688 -8.195312 2.8125 -7.945312 2.8125 -7.65625 Z M 2.71875 0 L 0.328125 0 L 0.328125 -6.140625 L 2.71875 -6.140625 Z M 2.71875 0 "/></g></g></g><g fill="#69b1c8" fill-opacity="1"><g transform="translate(106.555623, 90.080752)"><g><path d="M 5.703125 -3.640625 L 3.25 -6.140625 L 5.703125 -6.140625 Z M 3 -0.625 C 3.039062 -0.613281 3.082031 -0.609375 3.125 -0.609375 C 3.175781 -0.609375 3.25 -0.609375 3.34375 -0.609375 C 3.832031 -0.609375 4.265625 -0.726562 4.640625 -0.96875 C 5.023438 -1.21875 5.378906 -1.597656 5.703125 -2.109375 L 5.703125 -0.953125 C 5.328125 -0.578125 4.941406 -0.304688 4.546875 -0.140625 C 4.148438 0.0234375 3.679688 0.109375 3.140625 0.109375 C 2.210938 0.109375 1.484375 -0.164062 0.953125 -0.71875 C 0.429688 -1.28125 0.171875 -2.046875 0.171875 -3.015625 C 0.171875 -3.960938 0.414062 -4.710938 0.90625 -5.265625 C 1.40625 -5.816406 2.101562 -6.109375 3 -6.140625 Z M 3 -0.625 "/></g></g></g><g fill="#69b1c8" fill-opacity="1"><g transform="translate(112.468018, 90.080752)"><g><path d="M 2.71875 0 L 0.328125 0 L 0.328125 -8.578125 L 2.71875 -8.578125 Z M 6.53125 0 L 3.375 0 L 3.375 -6.140625 L 6.25 -6.140625 L 3.734375 -3.21875 Z M 6.53125 0 "/></g></g></g><g fill="#69b1c8" fill-opacity="1"><g transform="translate(118.543674, 90.080752)"><g/></g></g><g fill="#69b1c8" fill-opacity="1"><g transform="translate(122.2812, 90.080752)"><g><path d="M 2.71875 0 L 0.328125 0 L 0.328125 -8.578125 L 2.71875 -8.578125 Z M 3.375 -6.140625 L 3.65625 -6.140625 C 4.488281 -6.140625 5.046875 -5.988281 5.328125 -5.6875 C 5.609375 -5.394531 5.75 -4.800781 5.75 -3.90625 L 5.75 0 L 3.375 0 Z M 3.375 -6.140625 "/></g></g></g><g fill="#69b1c8" fill-opacity="1"><g transform="translate(128.356857, 90.080752)"><g><path d="M 5.59375 -3.21875 L 3.40625 -3.21875 L 3.40625 -6.25 C 4.164062 -6.207031 4.71875 -5.945312 5.0625 -5.46875 C 5.40625 -5 5.582031 -4.25 5.59375 -3.21875 Z M 2.796875 -0.640625 L 2.828125 -0.625 C 3.015625 -0.59375 3.160156 -0.578125 3.265625 -0.578125 C 3.722656 -0.578125 4.132812 -0.707031 4.5 -0.96875 C 4.875 -1.226562 5.21875 -1.625 5.53125 -2.15625 L 5.53125 -0.984375 C 5.1875 -0.609375 4.820312 -0.332031 4.4375 -0.15625 C 4.0625 0.0195312 3.640625 0.109375 3.171875 0.109375 C 2.210938 0.109375 1.472656 -0.164062 0.953125 -0.71875 C 0.429688 -1.269531 0.171875 -2.050781 0.171875 -3.0625 C 0.171875 -4.007812 0.398438 -4.757812 0.859375 -5.3125 C 1.328125 -5.875 1.972656 -6.1875 2.796875 -6.25 Z M 2.796875 -0.640625 "/></g></g></g><g fill="#69b1c8" fill-opacity="1"><g transform="translate(134.158473, 90.080752)"><g><path d="M 2.71875 -6.140625 L 2.71875 0 L 0.328125 0 L 0.328125 -6.140625 Z M 5.375 -5.0625 C 5.375 -4.738281 5.253906 -4.457031 5.015625 -4.21875 C 4.773438 -3.988281 4.492188 -3.875 4.171875 -3.875 C 3.847656 -3.875 3.566406 -3.988281 3.328125 -4.21875 C 3.097656 -4.457031 2.984375 -4.738281 2.984375 -5.0625 C 2.984375 -5.382812 3.097656 -5.660156 3.328125 -5.890625 C 3.566406 -6.128906 3.847656 -6.25 4.171875 -6.25 C 4.492188 -6.25 4.773438 -6.128906 5.015625 -5.890625 C 5.253906 -5.660156 5.375 -5.382812 5.375 -5.0625 Z M 5.375 -5.0625 "/></g></g></g><g fill="#69b1c8" fill-opacity="1"><g transform="translate(139.62773, 90.080752)"><g><path d="M 5.59375 -3.21875 L 3.40625 -3.21875 L 3.40625 -6.25 C 4.164062 -6.207031 4.71875 -5.945312 5.0625 -5.46875 C 5.40625 -5 5.582031 -4.25 5.59375 -3.21875 Z M 2.796875 -0.640625 L 2.828125 -0.625 C 3.015625 -0.59375 3.160156 -0.578125 3.265625 -0.578125 C 3.722656 -0.578125 4.132812 -0.707031 4.5 -0.96875 C 4.875 -1.226562 5.21875 -1.625 5.53125 -2.15625 L 5.53125 -0.984375 C 5.1875 -0.609375 4.820312 -0.332031 4.4375 -0.15625 C 4.0625 0.0195312 3.640625 0.109375 3.171875 0.109375 C 2.210938 0.109375 1.472656 -0.164062 0.953125 -0.71875 C 0.429688 -1.269531 0.171875 -2.050781 0.171875 -3.0625 C 0.171875 -4.007812 0.398438 -4.757812 0.859375 -5.3125 C 1.328125 -5.875 1.972656 -6.1875 2.796875 -6.25 Z M 2.796875 -0.640625 "/></g></g></g><g fill="#eacad0" fill-opacity="0.302"><g transform="translate(47.403926, 187.071492)"><g><path d="M 9.921875 0 L 7.40625 -9.859375 L 8.03125 -12.234375 L 10.84375 -12.234375 L 13.9375 0 Z M -0.328125 0 L 1.71875 -7.859375 L 3.734375 0 Z M 4.78125 0 L 2.25 -9.859375 L 2.875 -12.234375 L 5.6875 -12.234375 L 8.8125 0 Z M 4.78125 0 "/></g></g></g><g fill="#eacad0" fill-opacity="0.302"><g transform="translate(61.054987, 187.071492)"><g><path d="M 4.703125 0 L 4.703125 -6.234375 C 4.703125 -6.929688 4.625 -7.445312 4.46875 -7.78125 C 4.320312 -8.125 4.054688 -8.425781 3.671875 -8.6875 C 4.023438 -8.75 4.316406 -8.789062 4.546875 -8.8125 C 4.773438 -8.84375 4.976562 -8.859375 5.15625 -8.859375 C 6.113281 -8.859375 6.828125 -8.59375 7.296875 -8.0625 C 7.765625 -7.53125 8 -6.71875 8 -5.625 L 8 0 Z M 0.625 -6.984375 C 0.625 -7.453125 0.789062 -7.851562 1.125 -8.1875 C 1.46875 -8.53125 1.878906 -8.703125 2.359375 -8.703125 C 2.828125 -8.703125 3.226562 -8.53125 3.5625 -8.1875 C 3.90625 -7.851562 4.078125 -7.453125 4.078125 -6.984375 C 4.078125 -6.503906 3.90625 -6.09375 3.5625 -5.75 C 3.226562 -5.40625 2.828125 -5.234375 2.359375 -5.234375 C 1.878906 -5.234375 1.46875 -5.40625 1.125 -5.75 C 0.789062 -6.09375 0.625 -6.503906 0.625 -6.984375 Z M 3.6875 0 C 3.632812 0.0078125 3.578125 0.015625 3.515625 0.015625 C 3.453125 0.015625 3.363281 0.015625 3.25 0.015625 C 2.257812 0.015625 1.503906 -0.191406 0.984375 -0.609375 C 0.460938 -1.023438 0.203125 -1.628906 0.203125 -2.421875 C 0.203125 -3.222656 0.457031 -3.832031 0.96875 -4.25 C 1.488281 -4.664062 2.242188 -4.875 3.234375 -4.875 C 3.359375 -4.875 3.453125 -4.875 3.515625 -4.875 C 3.578125 -4.875 3.632812 -4.867188 3.6875 -4.859375 Z M 3.6875 0 "/></g></g></g><g fill="#eacad0" fill-opacity="0.302"><g transform="translate(69.761572, 187.071492)"><g><path d="M 3.84375 -8.703125 L 3.84375 0 L 0.46875 0 L 0.46875 -8.703125 Z M 7.609375 -7.171875 C 7.609375 -6.710938 7.441406 -6.316406 7.109375 -5.984375 C 6.773438 -5.648438 6.375 -5.484375 5.90625 -5.484375 C 5.457031 -5.484375 5.066406 -5.648438 4.734375 -5.984375 C 4.398438 -6.316406 4.234375 -6.710938 4.234375 -7.171875 C 4.234375 -7.628906 4.398438 -8.023438 4.734375 -8.359375 C 5.066406 -8.691406 5.457031 -8.859375 5.90625 -8.859375 C 6.363281 -8.859375 6.757812 -8.691406 7.09375 -8.359375 C 7.4375 -8.023438 7.609375 -7.628906 7.609375 -7.171875 Z M 7.609375 -7.171875 "/></g></g></g><g fill="#eacad0" fill-opacity="0.302"><g transform="translate(77.517289, 187.071492)"><g><path d="M 4.703125 0 L 4.703125 -6.234375 C 4.703125 -6.929688 4.625 -7.445312 4.46875 -7.78125 C 4.320312 -8.125 4.054688 -8.425781 3.671875 -8.6875 C 4.023438 -8.75 4.316406 -8.789062 4.546875 -8.8125 C 4.773438 -8.84375 4.976562 -8.859375 5.15625 -8.859375 C 6.113281 -8.859375 6.828125 -8.59375 7.296875 -8.0625 C 7.765625 -7.53125 8 -6.71875 8 -5.625 L 8 0 Z M 0.625 -6.984375 C 0.625 -7.453125 0.789062 -7.851562 1.125 -8.1875 C 1.46875 -8.53125 1.878906 -8.703125 2.359375 -8.703125 C 2.828125 -8.703125 3.226562 -8.53125 3.5625 -8.1875 C 3.90625 -7.851562 4.078125 -7.453125 4.078125 -6.984375 C 4.078125 -6.503906 3.90625 -6.09375 3.5625 -5.75 C 3.226562 -5.40625 2.828125 -5.234375 2.359375 -5.234375 C 1.878906 -5.234375 1.46875 -5.40625 1.125 -5.75 C 0.789062 -6.09375 0.625 -6.503906 0.625 -6.984375 Z M 3.6875 0 C 3.632812 0.0078125 3.578125 0.015625 3.515625 0.015625 C 3.453125 0.015625 3.363281 0.015625 3.25 0.015625 C 2.257812 0.015625 1.503906 -0.191406 0.984375 -0.609375 C 0.460938 -1.023438 0.203125 -1.628906 0.203125 -2.421875 C 0.203125 -3.222656 0.457031 -3.832031 0.96875 -4.25 C 1.488281 -4.664062 2.242188 -4.875 3.234375 -4.875 C 3.359375 -4.875 3.453125 -4.875 3.515625 -4.875 C 3.578125 -4.875 3.632812 -4.867188 3.6875 -4.859375 Z M 3.6875 0 "/></g></g></g><g fill="#eacad0" fill-opacity="0.302"><g transform="translate(86.223874, 187.071492)"><g><path d="M 8.140625 0 L 4.78125 0 L 4.78125 -8.703125 L 8.140625 -8.703125 Z M 3.84375 0 L 0.46875 0 L 0.46875 -8.703125 L 3.84375 -8.703125 Z M 9.09375 -8.703125 L 9.484375 -8.703125 C 10.660156 -8.703125 11.453125 -8.488281 11.859375 -8.0625 C 12.265625 -7.632812 12.46875 -6.789062 12.46875 -5.53125 L 12.46875 0 L 9.09375 0 Z M 9.09375 -8.703125 "/></g></g></g><g fill="#eacad0" fill-opacity="0.302"><g transform="translate(99.163856, 187.071492)"><g><path d="M 4.03125 0.15625 C 2.820312 0.0507812 1.882812 -0.390625 1.21875 -1.171875 C 0.5625 -1.960938 0.234375 -3.015625 0.234375 -4.328125 C 0.234375 -5.660156 0.5625 -6.71875 1.21875 -7.5 C 1.882812 -8.289062 2.820312 -8.742188 4.03125 -8.859375 Z M 4.984375 0.15625 L 4.984375 -8.859375 C 6.203125 -8.742188 7.140625 -8.289062 7.796875 -7.5 C 8.460938 -6.707031 8.796875 -5.648438 8.796875 -4.328125 C 8.796875 -3.015625 8.460938 -1.96875 7.796875 -1.1875 C 7.128906 -0.40625 6.191406 0.0390625 4.984375 0.15625 Z M 4.984375 0.15625 "/></g></g></g><g fill="#eacad0" fill-opacity="0.302"><g transform="translate(108.176364, 187.071492)"><g><path d="M 4.03125 0.15625 C 2.820312 0.0507812 1.882812 -0.390625 1.21875 -1.171875 C 0.5625 -1.960938 0.234375 -3.015625 0.234375 -4.328125 C 0.234375 -5.660156 0.5625 -6.71875 1.21875 -7.5 C 1.882812 -8.289062 2.820312 -8.742188 4.03125 -8.859375 Z M 4.984375 0.15625 L 4.984375 -8.859375 C 6.203125 -8.742188 7.140625 -8.289062 7.796875 -7.5 C 8.460938 -6.707031 8.796875 -5.648438 8.796875 -4.328125 C 8.796875 -3.015625 8.460938 -1.96875 7.796875 -1.1875 C 7.128906 -0.40625 6.191406 0.0390625 4.984375 0.15625 Z M 4.984375 0.15625 "/></g></g></g><g fill="#eacad0" fill-opacity="0.302"><g transform="translate(117.188872, 187.071492)"><g/></g></g><g fill="#eacad0" fill-opacity="0.302"><g transform="translate(122.488894, 187.071492)"><g><path d="M 5.609375 -12.234375 L 9.484375 -12.234375 L 9.484375 -7.609375 Z M 5.609375 0 L 9.484375 -4.625 L 9.484375 0 Z M 5.234375 0 C 3.617188 -0.125 2.394531 -0.707031 1.5625 -1.75 C 0.738281 -2.789062 0.328125 -4.242188 0.328125 -6.109375 C 0.328125 -7.984375 0.738281 -9.4375 1.5625 -10.46875 C 2.394531 -11.507812 3.617188 -12.097656 5.234375 -12.234375 Z M 5.234375 0 "/></g></g></g><g fill="#eacad0" fill-opacity="0.302"><g transform="translate(132.443994, 187.071492)"><g><path d="M 3.84375 0 L 0.46875 0 L 0.46875 -12.15625 L 3.84375 -12.15625 Z M 4.78125 -8.703125 L 5.1875 -8.703125 C 6.363281 -8.703125 7.148438 -8.488281 7.546875 -8.0625 C 7.941406 -7.644531 8.140625 -6.800781 8.140625 -5.53125 L 8.140625 0 L 4.78125 0 Z M 4.78125 -8.703125 "/></g></g></g><g fill="#eacad0" fill-opacity="0.302"><g transform="translate(141.059621, 187.071492)"><g><path d="M 3.84375 -8.703125 L 3.84375 0 L 0.46875 0 L 0.46875 -8.703125 Z M 7.609375 -7.171875 C 7.609375 -6.710938 7.441406 -6.316406 7.109375 -5.984375 C 6.773438 -5.648438 6.375 -5.484375 5.90625 -5.484375 C 5.457031 -5.484375 5.066406 -5.648438 4.734375 -5.984375 C 4.398438 -6.316406 4.234375 -6.710938 4.234375 -7.171875 C 4.234375 -7.628906 4.398438 -8.023438 4.734375 -8.359375 C 5.066406 -8.691406 5.457031 -8.859375 5.90625 -8.859375 C 6.363281 -8.859375 6.757812 -8.691406 7.09375 -8.359375 C 7.4375 -8.023438 7.609375 -7.628906 7.609375 -7.171875 Z M 7.609375 -7.171875 "/></g></g></g><g fill="#eacad0" fill-opacity="0.302"><g transform="translate(148.815339, 187.071492)"><g><path d="M 4.03125 0.15625 C 2.820312 0.0507812 1.882812 -0.390625 1.21875 -1.171875 C 0.5625 -1.960938 0.234375 -3.015625 0.234375 -4.328125 C 0.234375 -5.660156 0.5625 -6.71875 1.21875 -7.5 C 1.882812 -8.289062 2.820312 -8.742188 4.03125 -8.859375 Z M 4.984375 0.15625 L 4.984375 -8.859375 C 6.203125 -8.742188 7.140625 -8.289062 7.796875 -7.5 C 8.460938 -6.707031 8.796875 -5.648438 8.796875 -4.328125 C 8.796875 -3.015625 8.460938 -1.96875 7.796875 -1.1875 C 7.128906 -0.40625 6.191406 0.0390625 4.984375 0.15625 Z M 4.984375 0.15625 "/></g></g></g><g fill="#eacad0" fill-opacity="0.302"><g transform="translate(157.827846, 187.071492)"><g><path d="M 3.84375 0 L 0.46875 0 L 0.46875 -8.703125 L 3.84375 -8.703125 Z M 4.78125 -8.703125 L 5.1875 -8.703125 C 6.363281 -8.703125 7.148438 -8.488281 7.546875 -8.0625 C 7.941406 -7.644531 8.140625 -6.800781 8.140625 -5.53125 L 8.140625 0 L 4.78125 0 Z M 4.78125 -8.703125 "/></g></g></g><g fill="#eacad0" fill-opacity="0.302"><g transform="translate(166.443473, 187.071492)"><g><path d="M 4 -10.84375 C 4 -10.414062 3.816406 -10.046875 3.453125 -9.734375 C 3.097656 -9.421875 2.664062 -9.265625 2.15625 -9.265625 C 1.644531 -9.265625 1.210938 -9.421875 0.859375 -9.734375 C 0.503906 -10.046875 0.328125 -10.414062 0.328125 -10.84375 C 0.328125 -11.257812 0.503906 -11.617188 0.859375 -11.921875 C 1.210938 -12.222656 1.644531 -12.375 2.15625 -12.375 C 2.65625 -12.375 3.085938 -12.222656 3.453125 -11.921875 C 3.816406 -11.617188 4 -11.257812 4 -10.84375 Z M 3.84375 0 L 0.46875 0 L 0.46875 -8.703125 L 3.84375 -8.703125 Z M 3.84375 0 "/></g></g></g><g fill="#eacad0" fill-opacity="0.302"><g transform="translate(170.759555, 187.071492)"><g><path d="M 8.078125 -5.171875 L 4.609375 -8.703125 L 8.078125 -8.703125 Z M 4.25 -0.890625 C 4.3125 -0.878906 4.375 -0.867188 4.4375 -0.859375 C 4.507812 -0.859375 4.609375 -0.859375 4.734375 -0.859375 C 5.421875 -0.859375 6.035156 -1.03125 6.578125 -1.375 C 7.117188 -1.726562 7.617188 -2.269531 8.078125 -3 L 8.078125 -1.359375 C 7.546875 -0.816406 7 -0.425781 6.4375 -0.1875 C 5.875 0.0390625 5.207031 0.15625 4.4375 0.15625 C 3.132812 0.15625 2.109375 -0.234375 1.359375 -1.015625 C 0.609375 -1.804688 0.234375 -2.890625 0.234375 -4.265625 C 0.234375 -5.617188 0.585938 -6.6875 1.296875 -7.46875 C 2.003906 -8.25 2.988281 -8.660156 4.25 -8.703125 Z M 4.25 -0.890625 "/></g></g></g><g fill="#eacad0" fill-opacity="0.302"><g transform="translate(179.143668, 187.071492)"><g><path d="M 3.84375 0 L 0.46875 0 L 0.46875 -12.15625 L 3.84375 -12.15625 Z M 3.84375 0 "/></g></g></g><g fill="#eacad0" fill-opacity="0.302"><g transform="translate(183.459749, 187.071492)"><g><path d="M 7.921875 -4.5625 L 4.828125 -4.5625 L 4.828125 -8.859375 C 5.898438 -8.796875 6.675781 -8.425781 7.15625 -7.75 C 7.644531 -7.082031 7.898438 -6.019531 7.921875 -4.5625 Z M 3.96875 -0.90625 L 4 -0.890625 C 4.269531 -0.847656 4.476562 -0.828125 4.625 -0.828125 C 5.269531 -0.828125 5.851562 -1.007812 6.375 -1.375 C 6.90625 -1.738281 7.394531 -2.296875 7.84375 -3.046875 L 7.84375 -1.390625 C 7.351562 -0.859375 6.835938 -0.46875 6.296875 -0.21875 C 5.765625 0.03125 5.160156 0.15625 4.484375 0.15625 C 3.128906 0.15625 2.082031 -0.234375 1.34375 -1.015625 C 0.601562 -1.796875 0.234375 -2.898438 0.234375 -4.328125 C 0.234375 -5.671875 0.5625 -6.738281 1.21875 -7.53125 C 1.875 -8.332031 2.789062 -8.773438 3.96875 -8.859375 Z M 3.96875 -0.90625 "/></g></g></g><g fill="#eacad0" fill-opacity="0.302"><g transform="translate(191.686769, 187.071492)"><g><path d="M 2.828125 -8.703125 C 2.742188 -8.648438 2.675781 -8.582031 2.625 -8.5 C 2.582031 -8.414062 2.5625 -8.335938 2.5625 -8.265625 C 2.5625 -8.066406 2.671875 -7.851562 2.890625 -7.625 C 2.929688 -7.582031 2.96875 -7.546875 3 -7.515625 L 6.453125 -3.890625 C 6.753906 -3.585938 6.976562 -3.273438 7.125 -2.953125 C 7.28125 -2.628906 7.359375 -2.296875 7.359375 -1.953125 C 7.359375 -1.328125 7.132812 -0.84375 6.6875 -0.5 C 6.25 -0.15625 5.628906 0.015625 4.828125 0.015625 C 4.773438 0.015625 4.707031 0.0078125 4.625 0 C 4.539062 0 4.476562 0 4.4375 0 C 4.519531 -0.0507812 4.582031 -0.117188 4.625 -0.203125 C 4.675781 -0.285156 4.703125 -0.367188 4.703125 -0.453125 C 4.703125 -0.648438 4.585938 -0.863281 4.359375 -1.09375 C 4.328125 -1.132812 4.300781 -1.164062 4.28125 -1.1875 L 0.953125 -4.8125 C 0.742188 -5.03125 0.597656 -5.25 0.515625 -5.46875 C 0.441406 -5.695312 0.40625 -6.003906 0.40625 -6.390625 C 0.40625 -7.046875 0.617188 -7.59375 1.046875 -8.03125 C 1.472656 -8.476562 2.003906 -8.703125 2.640625 -8.703125 Z M 6.65625 -5 L 3.171875 -8.703125 L 6.65625 -8.703125 Z M 4.109375 0 L 0.546875 0 L 0.546875 -3.828125 Z M 4.109375 0 "/></g></g></g><g fill="#eacad0" fill-opacity="0.502"><g transform="translate(46.727157, 186.561507)"><g><path d="M 9.921875 0 L 7.40625 -9.859375 L 8.03125 -12.234375 L 10.84375 -12.234375 L 13.9375 0 Z M -0.328125 0 L 1.71875 -7.859375 L 3.734375 0 Z M 4.78125 0 L 2.25 -9.859375 L 2.875 -12.234375 L 5.6875 -12.234375 L 8.8125 0 Z M 4.78125 0 "/></g></g></g><g fill="#eacad0" fill-opacity="0.502"><g transform="translate(60.378219, 186.561507)"><g><path d="M 4.703125 0 L 4.703125 -6.234375 C 4.703125 -6.929688 4.625 -7.445312 4.46875 -7.78125 C 4.320312 -8.125 4.054688 -8.425781 3.671875 -8.6875 C 4.023438 -8.75 4.316406 -8.789062 4.546875 -8.8125 C 4.773438 -8.84375 4.976562 -8.859375 5.15625 -8.859375 C 6.113281 -8.859375 6.828125 -8.59375 7.296875 -8.0625 C 7.765625 -7.53125 8 -6.71875 8 -5.625 L 8 0 Z M 0.625 -6.984375 C 0.625 -7.453125 0.789062 -7.851562 1.125 -8.1875 C 1.46875 -8.53125 1.878906 -8.703125 2.359375 -8.703125 C 2.828125 -8.703125 3.226562 -8.53125 3.5625 -8.1875 C 3.90625 -7.851562 4.078125 -7.453125 4.078125 -6.984375 C 4.078125 -6.503906 3.90625 -6.09375 3.5625 -5.75 C 3.226562 -5.40625 2.828125 -5.234375 2.359375 -5.234375 C 1.878906 -5.234375 1.46875 -5.40625 1.125 -5.75 C 0.789062 -6.09375 0.625 -6.503906 0.625 -6.984375 Z M 3.6875 0 C 3.632812 0.0078125 3.578125 0.015625 3.515625 0.015625 C 3.453125 0.015625 3.363281 0.015625 3.25 0.015625 C 2.257812 0.015625 1.503906 -0.191406 0.984375 -0.609375 C 0.460938 -1.023438 0.203125 -1.628906 0.203125 -2.421875 C 0.203125 -3.222656 0.457031 -3.832031 0.96875 -4.25 C 1.488281 -4.664062 2.242188 -4.875 3.234375 -4.875 C 3.359375 -4.875 3.453125 -4.875 3.515625 -4.875 C 3.578125 -4.875 3.632812 -4.867188 3.6875 -4.859375 Z M 3.6875 0 "/></g></g></g><g fill="#eacad0" fill-opacity="0.502"><g transform="translate(69.084803, 186.561507)"><g><path d="M 3.84375 -8.703125 L 3.84375 0 L 0.46875 0 L 0.46875 -8.703125 Z M 7.609375 -7.171875 C 7.609375 -6.710938 7.441406 -6.316406 7.109375 -5.984375 C 6.773438 -5.648438 6.375 -5.484375 5.90625 -5.484375 C 5.457031 -5.484375 5.066406 -5.648438 4.734375 -5.984375 C 4.398438 -6.316406 4.234375 -6.710938 4.234375 -7.171875 C 4.234375 -7.628906 4.398438 -8.023438 4.734375 -8.359375 C 5.066406 -8.691406 5.457031 -8.859375 5.90625 -8.859375 C 6.363281 -8.859375 6.757812 -8.691406 7.09375 -8.359375 C 7.4375 -8.023438 7.609375 -7.628906 7.609375 -7.171875 Z M 7.609375 -7.171875 "/></g></g></g><g fill="#eacad0" fill-opacity="0.502"><g transform="translate(76.840521, 186.561507)"><g><path d="M 4.703125 0 L 4.703125 -6.234375 C 4.703125 -6.929688 4.625 -7.445312 4.46875 -7.78125 C 4.320312 -8.125 4.054688 -8.425781 3.671875 -8.6875 C 4.023438 -8.75 4.316406 -8.789062 4.546875 -8.8125 C 4.773438 -8.84375 4.976562 -8.859375 5.15625 -8.859375 C 6.113281 -8.859375 6.828125 -8.59375 7.296875 -8.0625 C 7.765625 -7.53125 8 -6.71875 8 -5.625 L 8 0 Z M 0.625 -6.984375 C 0.625 -7.453125 0.789062 -7.851562 1.125 -8.1875 C 1.46875 -8.53125 1.878906 -8.703125 2.359375 -8.703125 C 2.828125 -8.703125 3.226562 -8.53125 3.5625 -8.1875 C 3.90625 -7.851562 4.078125 -7.453125 4.078125 -6.984375 C 4.078125 -6.503906 3.90625 -6.09375 3.5625 -5.75 C 3.226562 -5.40625 2.828125 -5.234375 2.359375 -5.234375 C 1.878906 -5.234375 1.46875 -5.40625 1.125 -5.75 C 0.789062 -6.09375 0.625 -6.503906 0.625 -6.984375 Z M 3.6875 0 C 3.632812 0.0078125 3.578125 0.015625 3.515625 0.015625 C 3.453125 0.015625 3.363281 0.015625 3.25 0.015625 C 2.257812 0.015625 1.503906 -0.191406 0.984375 -0.609375 C 0.460938 -1.023438 0.203125 -1.628906 0.203125 -2.421875 C 0.203125 -3.222656 0.457031 -3.832031 0.96875 -4.25 C 1.488281 -4.664062 2.242188 -4.875 3.234375 -4.875 C 3.359375 -4.875 3.453125 -4.875 3.515625 -4.875 C 3.578125 -4.875 3.632812 -4.867188 3.6875 -4.859375 Z M 3.6875 0 "/></g></g></g><g fill="#eacad0" fill-opacity="0.502"><g transform="translate(85.547105, 186.561507)"><g><path d="M 8.140625 0 L 4.78125 0 L 4.78125 -8.703125 L 8.140625 -8.703125 Z M 3.84375 0 L 0.46875 0 L 0.46875 -8.703125 L 3.84375 -8.703125 Z M 9.09375 -8.703125 L 9.484375 -8.703125 C 10.660156 -8.703125 11.453125 -8.488281 11.859375 -8.0625 C 12.265625 -7.632812 12.46875 -6.789062 12.46875 -5.53125 L 12.46875 0 L 9.09375 0 Z M 9.09375 -8.703125 "/></g></g></g><g fill="#eacad0" fill-opacity="0.502"><g transform="translate(98.487087, 186.561507)"><g><path d="M 4.03125 0.15625 C 2.820312 0.0507812 1.882812 -0.390625 1.21875 -1.171875 C 0.5625 -1.960938 0.234375 -3.015625 0.234375 -4.328125 C 0.234375 -5.660156 0.5625 -6.71875 1.21875 -7.5 C 1.882812 -8.289062 2.820312 -8.742188 4.03125 -8.859375 Z M 4.984375 0.15625 L 4.984375 -8.859375 C 6.203125 -8.742188 7.140625 -8.289062 7.796875 -7.5 C 8.460938 -6.707031 8.796875 -5.648438 8.796875 -4.328125 C 8.796875 -3.015625 8.460938 -1.96875 7.796875 -1.1875 C 7.128906 -0.40625 6.191406 0.0390625 4.984375 0.15625 Z M 4.984375 0.15625 "/></g></g></g><g fill="#eacad0" fill-opacity="0.502"><g transform="translate(107.499595, 186.561507)"><g><path d="M 4.03125 0.15625 C 2.820312 0.0507812 1.882812 -0.390625 1.21875 -1.171875 C 0.5625 -1.960938 0.234375 -3.015625 0.234375 -4.328125 C 0.234375 -5.660156 0.5625 -6.71875 1.21875 -7.5 C 1.882812 -8.289062 2.820312 -8.742188 4.03125 -8.859375 Z M 4.984375 0.15625 L 4.984375 -8.859375 C 6.203125 -8.742188 7.140625 -8.289062 7.796875 -7.5 C 8.460938 -6.707031 8.796875 -5.648438 8.796875 -4.328125 C 8.796875 -3.015625 8.460938 -1.96875 7.796875 -1.1875 C 7.128906 -0.40625 6.191406 0.0390625 4.984375 0.15625 Z M 4.984375 0.15625 "/></g></g></g><g fill="#eacad0" fill-opacity="0.502"><g transform="translate(116.512103, 186.561507)"><g/></g></g><g fill="#eacad0" fill-opacity="0.502"><g transform="translate(121.812125, 186.561507)"><g><path d="M 5.609375 -12.234375 L 9.484375 -12.234375 L 9.484375 -7.609375 Z M 5.609375 0 L 9.484375 -4.625 L 9.484375 0 Z M 5.234375 0 C 3.617188 -0.125 2.394531 -0.707031 1.5625 -1.75 C 0.738281 -2.789062 0.328125 -4.242188 0.328125 -6.109375 C 0.328125 -7.984375 0.738281 -9.4375 1.5625 -10.46875 C 2.394531 -11.507812 3.617188 -12.097656 5.234375 -12.234375 Z M 5.234375 0 "/></g></g></g><g fill="#eacad0" fill-opacity="0.502"><g transform="translate(131.767225, 186.561507)"><g><path d="M 3.84375 0 L 0.46875 0 L 0.46875 -12.15625 L 3.84375 -12.15625 Z M 4.78125 -8.703125 L 5.1875 -8.703125 C 6.363281 -8.703125 7.148438 -8.488281 7.546875 -8.0625 C 7.941406 -7.644531 8.140625 -6.800781 8.140625 -5.53125 L 8.140625 0 L 4.78125 0 Z M 4.78125 -8.703125 "/></g></g></g><g fill="#eacad0" fill-opacity="0.502"><g transform="translate(140.382852, 186.561507)"><g><path d="M 3.84375 -8.703125 L 3.84375 0 L 0.46875 0 L 0.46875 -8.703125 Z M 7.609375 -7.171875 C 7.609375 -6.710938 7.441406 -6.316406 7.109375 -5.984375 C 6.773438 -5.648438 6.375 -5.484375 5.90625 -5.484375 C 5.457031 -5.484375 5.066406 -5.648438 4.734375 -5.984375 C 4.398438 -6.316406 4.234375 -6.710938 4.234375 -7.171875 C 4.234375 -7.628906 4.398438 -8.023438 4.734375 -8.359375 C 5.066406 -8.691406 5.457031 -8.859375 5.90625 -8.859375 C 6.363281 -8.859375 6.757812 -8.691406 7.09375 -8.359375 C 7.4375 -8.023438 7.609375 -7.628906 7.609375 -7.171875 Z M 7.609375 -7.171875 "/></g></g></g><g fill="#eacad0" fill-opacity="0.502"><g transform="translate(148.13857, 186.561507)"><g><path d="M 4.03125 0.15625 C 2.820312 0.0507812 1.882812 -0.390625 1.21875 -1.171875 C 0.5625 -1.960938 0.234375 -3.015625 0.234375 -4.328125 C 0.234375 -5.660156 0.5625 -6.71875 1.21875 -7.5 C 1.882812 -8.289062 2.820312 -8.742188 4.03125 -8.859375 Z M 4.984375 0.15625 L 4.984375 -8.859375 C 6.203125 -8.742188 7.140625 -8.289062 7.796875 -7.5 C 8.460938 -6.707031 8.796875 -5.648438 8.796875 -4.328125 C 8.796875 -3.015625 8.460938 -1.96875 7.796875 -1.1875 C 7.128906 -0.40625 6.191406 0.0390625 4.984375 0.15625 Z M 4.984375 0.15625 "/></g></g></g><g fill="#eacad0" fill-opacity="0.502"><g transform="translate(157.151078, 186.561507)"><g><path d="M 3.84375 0 L 0.46875 0 L 0.46875 -8.703125 L 3.84375 -8.703125 Z M 4.78125 -8.703125 L 5.1875 -8.703125 C 6.363281 -8.703125 7.148438 -8.488281 7.546875 -8.0625 C 7.941406 -7.644531 8.140625 -6.800781 8.140625 -5.53125 L 8.140625 0 L 4.78125 0 Z M 4.78125 -8.703125 "/></g></g></g><g fill="#eacad0" fill-opacity="0.502"><g transform="translate(165.766704, 186.561507)"><g><path d="M 4 -10.84375 C 4 -10.414062 3.816406 -10.046875 3.453125 -9.734375 C 3.097656 -9.421875 2.664062 -9.265625 2.15625 -9.265625 C 1.644531 -9.265625 1.210938 -9.421875 0.859375 -9.734375 C 0.503906 -10.046875 0.328125 -10.414062 0.328125 -10.84375 C 0.328125 -11.257812 0.503906 -11.617188 0.859375 -11.921875 C 1.210938 -12.222656 1.644531 -12.375 2.15625 -12.375 C 2.65625 -12.375 3.085938 -12.222656 3.453125 -11.921875 C 3.816406 -11.617188 4 -11.257812 4 -10.84375 Z M 3.84375 0 L 0.46875 0 L 0.46875 -8.703125 L 3.84375 -8.703125 Z M 3.84375 0 "/></g></g></g><g fill="#eacad0" fill-opacity="0.502"><g transform="translate(170.082786, 186.561507)"><g><path d="M 8.078125 -5.171875 L 4.609375 -8.703125 L 8.078125 -8.703125 Z M 4.25 -0.890625 C 4.3125 -0.878906 4.375 -0.867188 4.4375 -0.859375 C 4.507812 -0.859375 4.609375 -0.859375 4.734375 -0.859375 C 5.421875 -0.859375 6.035156 -1.03125 6.578125 -1.375 C 7.117188 -1.726562 7.617188 -2.269531 8.078125 -3 L 8.078125 -1.359375 C 7.546875 -0.816406 7 -0.425781 6.4375 -0.1875 C 5.875 0.0390625 5.207031 0.15625 4.4375 0.15625 C 3.132812 0.15625 2.109375 -0.234375 1.359375 -1.015625 C 0.609375 -1.804688 0.234375 -2.890625 0.234375 -4.265625 C 0.234375 -5.617188 0.585938 -6.6875 1.296875 -7.46875 C 2.003906 -8.25 2.988281 -8.660156 4.25 -8.703125 Z M 4.25 -0.890625 "/></g></g></g><g fill="#eacad0" fill-opacity="0.502"><g transform="translate(178.466899, 186.561507)"><g><path d="M 3.84375 0 L 0.46875 0 L 0.46875 -12.15625 L 3.84375 -12.15625 Z M 3.84375 0 "/></g></g></g><g fill="#eacad0" fill-opacity="0.502"><g transform="translate(182.782981, 186.561507)"><g><path d="M 7.921875 -4.5625 L 4.828125 -4.5625 L 4.828125 -8.859375 C 5.898438 -8.796875 6.675781 -8.425781 7.15625 -7.75 C 7.644531 -7.082031 7.898438 -6.019531 7.921875 -4.5625 Z M 3.96875 -0.90625 L 4 -0.890625 C 4.269531 -0.847656 4.476562 -0.828125 4.625 -0.828125 C 5.269531 -0.828125 5.851562 -1.007812 6.375 -1.375 C 6.90625 -1.738281 7.394531 -2.296875 7.84375 -3.046875 L 7.84375 -1.390625 C 7.351562 -0.859375 6.835938 -0.46875 6.296875 -0.21875 C 5.765625 0.03125 5.160156 0.15625 4.484375 0.15625 C 3.128906 0.15625 2.082031 -0.234375 1.34375 -1.015625 C 0.601562 -1.796875 0.234375 -2.898438 0.234375 -4.328125 C 0.234375 -5.671875 0.5625 -6.738281 1.21875 -7.53125 C 1.875 -8.332031 2.789062 -8.773438 3.96875 -8.859375 Z M 3.96875 -0.90625 "/></g></g></g><g fill="#eacad0" fill-opacity="0.502"><g transform="translate(191.01, 186.561507)"><g><path d="M 2.828125 -8.703125 C 2.742188 -8.648438 2.675781 -8.582031 2.625 -8.5 C 2.582031 -8.414062 2.5625 -8.335938 2.5625 -8.265625 C 2.5625 -8.066406 2.671875 -7.851562 2.890625 -7.625 C 2.929688 -7.582031 2.96875 -7.546875 3 -7.515625 L 6.453125 -3.890625 C 6.753906 -3.585938 6.976562 -3.273438 7.125 -2.953125 C 7.28125 -2.628906 7.359375 -2.296875 7.359375 -1.953125 C 7.359375 -1.328125 7.132812 -0.84375 6.6875 -0.5 C 6.25 -0.15625 5.628906 0.015625 4.828125 0.015625 C 4.773438 0.015625 4.707031 0.0078125 4.625 0 C 4.539062 0 4.476562 0 4.4375 0 C 4.519531 -0.0507812 4.582031 -0.117188 4.625 -0.203125 C 4.675781 -0.285156 4.703125 -0.367188 4.703125 -0.453125 C 4.703125 -0.648438 4.585938 -0.863281 4.359375 -1.09375 C 4.328125 -1.132812 4.300781 -1.164062 4.28125 -1.1875 L 0.953125 -4.8125 C 0.742188 -5.03125 0.597656 -5.25 0.515625 -5.46875 C 0.441406 -5.695312 0.40625 -6.003906 0.40625 -6.390625 C 0.40625 -7.046875 0.617188 -7.59375 1.046875 -8.03125 C 1.472656 -8.476562 2.003906 -8.703125 2.640625 -8.703125 Z M 6.65625 -5 L 3.171875 -8.703125 L 6.65625 -8.703125 Z M 4.109375 0 L 0.546875 0 L 0.546875 -3.828125 Z M 4.109375 0 "/></g></g></g><g fill="#f24c3d" fill-opacity="1"><g transform="translate(46.050389, 186.051521)"><g><path d="M 9.921875 0 L 7.40625 -9.859375 L 8.03125 -12.234375 L 10.84375 -12.234375 L 13.9375 0 Z M -0.328125 0 L 1.71875 -7.859375 L 3.734375 0 Z M 4.78125 0 L 2.25 -9.859375 L 2.875 -12.234375 L 5.6875 -12.234375 L 8.8125 0 Z M 4.78125 0 "/></g></g></g><g fill="#f24c3d" fill-opacity="1"><g transform="translate(59.70145, 186.051521)"><g><path d="M 4.703125 0 L 4.703125 -6.234375 C 4.703125 -6.929688 4.625 -7.445312 4.46875 -7.78125 C 4.320312 -8.125 4.054688 -8.425781 3.671875 -8.6875 C 4.023438 -8.75 4.316406 -8.789062 4.546875 -8.8125 C 4.773438 -8.84375 4.976562 -8.859375 5.15625 -8.859375 C 6.113281 -8.859375 6.828125 -8.59375 7.296875 -8.0625 C 7.765625 -7.53125 8 -6.71875 8 -5.625 L 8 0 Z M 0.625 -6.984375 C 0.625 -7.453125 0.789062 -7.851562 1.125 -8.1875 C 1.46875 -8.53125 1.878906 -8.703125 2.359375 -8.703125 C 2.828125 -8.703125 3.226562 -8.53125 3.5625 -8.1875 C 3.90625 -7.851562 4.078125 -7.453125 4.078125 -6.984375 C 4.078125 -6.503906 3.90625 -6.09375 3.5625 -5.75 C 3.226562 -5.40625 2.828125 -5.234375 2.359375 -5.234375 C 1.878906 -5.234375 1.46875 -5.40625 1.125 -5.75 C 0.789062 -6.09375 0.625 -6.503906 0.625 -6.984375 Z M 3.6875 0 C 3.632812 0.0078125 3.578125 0.015625 3.515625 0.015625 C 3.453125 0.015625 3.363281 0.015625 3.25 0.015625 C 2.257812 0.015625 1.503906 -0.191406 0.984375 -0.609375 C 0.460938 -1.023438 0.203125 -1.628906 0.203125 -2.421875 C 0.203125 -3.222656 0.457031 -3.832031 0.96875 -4.25 C 1.488281 -4.664062 2.242188 -4.875 3.234375 -4.875 C 3.359375 -4.875 3.453125 -4.875 3.515625 -4.875 C 3.578125 -4.875 3.632812 -4.867188 3.6875 -4.859375 Z M 3.6875 0 "/></g></g></g><g fill="#f24c3d" fill-opacity="1"><g transform="translate(68.408034, 186.051521)"><g><path d="M 3.84375 -8.703125 L 3.84375 0 L 0.46875 0 L 0.46875 -8.703125 Z M 7.609375 -7.171875 C 7.609375 -6.710938 7.441406 -6.316406 7.109375 -5.984375 C 6.773438 -5.648438 6.375 -5.484375 5.90625 -5.484375 C 5.457031 -5.484375 5.066406 -5.648438 4.734375 -5.984375 C 4.398438 -6.316406 4.234375 -6.710938 4.234375 -7.171875 C 4.234375 -7.628906 4.398438 -8.023438 4.734375 -8.359375 C 5.066406 -8.691406 5.457031 -8.859375 5.90625 -8.859375 C 6.363281 -8.859375 6.757812 -8.691406 7.09375 -8.359375 C 7.4375 -8.023438 7.609375 -7.628906 7.609375 -7.171875 Z M 7.609375 -7.171875 "/></g></g></g><g fill="#f24c3d" fill-opacity="1"><g transform="translate(76.163752, 186.051521)"><g><path d="M 4.703125 0 L 4.703125 -6.234375 C 4.703125 -6.929688 4.625 -7.445312 4.46875 -7.78125 C 4.320312 -8.125 4.054688 -8.425781 3.671875 -8.6875 C 4.023438 -8.75 4.316406 -8.789062 4.546875 -8.8125 C 4.773438 -8.84375 4.976562 -8.859375 5.15625 -8.859375 C 6.113281 -8.859375 6.828125 -8.59375 7.296875 -8.0625 C 7.765625 -7.53125 8 -6.71875 8 -5.625 L 8 0 Z M 0.625 -6.984375 C 0.625 -7.453125 0.789062 -7.851562 1.125 -8.1875 C 1.46875 -8.53125 1.878906 -8.703125 2.359375 -8.703125 C 2.828125 -8.703125 3.226562 -8.53125 3.5625 -8.1875 C 3.90625 -7.851562 4.078125 -7.453125 4.078125 -6.984375 C 4.078125 -6.503906 3.90625 -6.09375 3.5625 -5.75 C 3.226562 -5.40625 2.828125 -5.234375 2.359375 -5.234375 C 1.878906 -5.234375 1.46875 -5.40625 1.125 -5.75 C 0.789062 -6.09375 0.625 -6.503906 0.625 -6.984375 Z M 3.6875 0 C 3.632812 0.0078125 3.578125 0.015625 3.515625 0.015625 C 3.453125 0.015625 3.363281 0.015625 3.25 0.015625 C 2.257812 0.015625 1.503906 -0.191406 0.984375 -0.609375 C 0.460938 -1.023438 0.203125 -1.628906 0.203125 -2.421875 C 0.203125 -3.222656 0.457031 -3.832031 0.96875 -4.25 C 1.488281 -4.664062 2.242188 -4.875 3.234375 -4.875 C 3.359375 -4.875 3.453125 -4.875 3.515625 -4.875 C 3.578125 -4.875 3.632812 -4.867188 3.6875 -4.859375 Z M 3.6875 0 "/></g></g></g><g fill="#f24c3d" fill-opacity="1"><g transform="translate(84.870336, 186.051521)"><g><path d="M 8.140625 0 L 4.78125 0 L 4.78125 -8.703125 L 8.140625 -8.703125 Z M 3.84375 0 L 0.46875 0 L 0.46875 -8.703125 L 3.84375 -8.703125 Z M 9.09375 -8.703125 L 9.484375 -8.703125 C 10.660156 -8.703125 11.453125 -8.488281 11.859375 -8.0625 C 12.265625 -7.632812 12.46875 -6.789062 12.46875 -5.53125 L 12.46875 0 L 9.09375 0 Z M 9.09375 -8.703125 "/></g></g></g><g fill="#f24c3d" fill-opacity="1"><g transform="translate(97.810319, 186.051521)"><g><path d="M 4.03125 0.15625 C 2.820312 0.0507812 1.882812 -0.390625 1.21875 -1.171875 C 0.5625 -1.960938 0.234375 -3.015625 0.234375 -4.328125 C 0.234375 -5.660156 0.5625 -6.71875 1.21875 -7.5 C 1.882812 -8.289062 2.820312 -8.742188 4.03125 -8.859375 Z M 4.984375 0.15625 L 4.984375 -8.859375 C 6.203125 -8.742188 7.140625 -8.289062 7.796875 -7.5 C 8.460938 -6.707031 8.796875 -5.648438 8.796875 -4.328125 C 8.796875 -3.015625 8.460938 -1.96875 7.796875 -1.1875 C 7.128906 -0.40625 6.191406 0.0390625 4.984375 0.15625 Z M 4.984375 0.15625 "/></g></g></g><g fill="#f24c3d" fill-opacity="1"><g transform="translate(106.822827, 186.051521)"><g><path d="M 4.03125 0.15625 C 2.820312 0.0507812 1.882812 -0.390625 1.21875 -1.171875 C 0.5625 -1.960938 0.234375 -3.015625 0.234375 -4.328125 C 0.234375 -5.660156 0.5625 -6.71875 1.21875 -7.5 C 1.882812 -8.289062 2.820312 -8.742188 4.03125 -8.859375 Z M 4.984375 0.15625 L 4.984375 -8.859375 C 6.203125 -8.742188 7.140625 -8.289062 7.796875 -7.5 C 8.460938 -6.707031 8.796875 -5.648438 8.796875 -4.328125 C 8.796875 -3.015625 8.460938 -1.96875 7.796875 -1.1875 C 7.128906 -0.40625 6.191406 0.0390625 4.984375 0.15625 Z M 4.984375 0.15625 "/></g></g></g><g fill="#f24c3d" fill-opacity="1"><g transform="translate(115.835334, 186.051521)"><g/></g></g><g fill="#f24c3d" fill-opacity="1"><g transform="translate(121.135356, 186.051521)"><g><path d="M 5.609375 -12.234375 L 9.484375 -12.234375 L 9.484375 -7.609375 Z M 5.609375 0 L 9.484375 -4.625 L 9.484375 0 Z M 5.234375 0 C 3.617188 -0.125 2.394531 -0.707031 1.5625 -1.75 C 0.738281 -2.789062 0.328125 -4.242188 0.328125 -6.109375 C 0.328125 -7.984375 0.738281 -9.4375 1.5625 -10.46875 C 2.394531 -11.507812 3.617188 -12.097656 5.234375 -12.234375 Z M 5.234375 0 "/></g></g></g><g fill="#f24c3d" fill-opacity="1"><g transform="translate(131.090457, 186.051521)"><g><path d="M 3.84375 0 L 0.46875 0 L 0.46875 -12.15625 L 3.84375 -12.15625 Z M 4.78125 -8.703125 L 5.1875 -8.703125 C 6.363281 -8.703125 7.148438 -8.488281 7.546875 -8.0625 C 7.941406 -7.644531 8.140625 -6.800781 8.140625 -5.53125 L 8.140625 0 L 4.78125 0 Z M 4.78125 -8.703125 "/></g></g></g><g fill="#f24c3d" fill-opacity="1"><g transform="translate(139.706083, 186.051521)"><g><path d="M 3.84375 -8.703125 L 3.84375 0 L 0.46875 0 L 0.46875 -8.703125 Z M 7.609375 -7.171875 C 7.609375 -6.710938 7.441406 -6.316406 7.109375 -5.984375 C 6.773438 -5.648438 6.375 -5.484375 5.90625 -5.484375 C 5.457031 -5.484375 5.066406 -5.648438 4.734375 -5.984375 C 4.398438 -6.316406 4.234375 -6.710938 4.234375 -7.171875 C 4.234375 -7.628906 4.398438 -8.023438 4.734375 -8.359375 C 5.066406 -8.691406 5.457031 -8.859375 5.90625 -8.859375 C 6.363281 -8.859375 6.757812 -8.691406 7.09375 -8.359375 C 7.4375 -8.023438 7.609375 -7.628906 7.609375 -7.171875 Z M 7.609375 -7.171875 "/></g></g></g><g fill="#f24c3d" fill-opacity="1"><g transform="translate(147.461801, 186.051521)"><g><path d="M 4.03125 0.15625 C 2.820312 0.0507812 1.882812 -0.390625 1.21875 -1.171875 C 0.5625 -1.960938 0.234375 -3.015625 0.234375 -4.328125 C 0.234375 -5.660156 0.5625 -6.71875 1.21875 -7.5 C 1.882812 -8.289062 2.820312 -8.742188 4.03125 -8.859375 Z M 4.984375 0.15625 L 4.984375 -8.859375 C 6.203125 -8.742188 7.140625 -8.289062 7.796875 -7.5 C 8.460938 -6.707031 8.796875 -5.648438 8.796875 -4.328125 C 8.796875 -3.015625 8.460938 -1.96875 7.796875 -1.1875 C 7.128906 -0.40625 6.191406 0.0390625 4.984375 0.15625 Z M 4.984375 0.15625 "/></g></g></g><g fill="#f24c3d" fill-opacity="1"><g transform="translate(156.474309, 186.051521)"><g><path d="M 3.84375 0 L 0.46875 0 L 0.46875 -8.703125 L 3.84375 -8.703125 Z M 4.78125 -8.703125 L 5.1875 -8.703125 C 6.363281 -8.703125 7.148438 -8.488281 7.546875 -8.0625 C 7.941406 -7.644531 8.140625 -6.800781 8.140625 -5.53125 L 8.140625 0 L 4.78125 0 Z M 4.78125 -8.703125 "/></g></g></g><g fill="#f24c3d" fill-opacity="1"><g transform="translate(165.089936, 186.051521)"><g><path d="M 4 -10.84375 C 4 -10.414062 3.816406 -10.046875 3.453125 -9.734375 C 3.097656 -9.421875 2.664062 -9.265625 2.15625 -9.265625 C 1.644531 -9.265625 1.210938 -9.421875 0.859375 -9.734375 C 0.503906 -10.046875 0.328125 -10.414062 0.328125 -10.84375 C 0.328125 -11.257812 0.503906 -11.617188 0.859375 -11.921875 C 1.210938 -12.222656 1.644531 -12.375 2.15625 -12.375 C 2.65625 -12.375 3.085938 -12.222656 3.453125 -11.921875 C 3.816406 -11.617188 4 -11.257812 4 -10.84375 Z M 3.84375 0 L 0.46875 0 L 0.46875 -8.703125 L 3.84375 -8.703125 Z M 3.84375 0 "/></g></g></g><g fill="#f24c3d" fill-opacity="1"><g transform="translate(169.406017, 186.051521)"><g><path d="M 8.078125 -5.171875 L 4.609375 -8.703125 L 8.078125 -8.703125 Z M 4.25 -0.890625 C 4.3125 -0.878906 4.375 -0.867188 4.4375 -0.859375 C 4.507812 -0.859375 4.609375 -0.859375 4.734375 -0.859375 C 5.421875 -0.859375 6.035156 -1.03125 6.578125 -1.375 C 7.117188 -1.726562 7.617188 -2.269531 8.078125 -3 L 8.078125 -1.359375 C 7.546875 -0.816406 7 -0.425781 6.4375 -0.1875 C 5.875 0.0390625 5.207031 0.15625 4.4375 0.15625 C 3.132812 0.15625 2.109375 -0.234375 1.359375 -1.015625 C 0.609375 -1.804688 0.234375 -2.890625 0.234375 -4.265625 C 0.234375 -5.617188 0.585938 -6.6875 1.296875 -7.46875 C 2.003906 -8.25 2.988281 -8.660156 4.25 -8.703125 Z M 4.25 -0.890625 "/></g></g></g><g fill="#f24c3d" fill-opacity="1"><g transform="translate(177.79013, 186.051521)"><g><path d="M 3.84375 0 L 0.46875 0 L 0.46875 -12.15625 L 3.84375 -12.15625 Z M 3.84375 0 "/></g></g></g><g fill="#f24c3d" fill-opacity="1"><g transform="translate(182.106212, 186.051521)"><g><path d="M 7.921875 -4.5625 L 4.828125 -4.5625 L 4.828125 -8.859375 C 5.898438 -8.796875 6.675781 -8.425781 7.15625 -7.75 C 7.644531 -7.082031 7.898438 -6.019531 7.921875 -4.5625 Z M 3.96875 -0.90625 L 4 -0.890625 C 4.269531 -0.847656 4.476562 -0.828125 4.625 -0.828125 C 5.269531 -0.828125 5.851562 -1.007812 6.375 -1.375 C 6.90625 -1.738281 7.394531 -2.296875 7.84375 -3.046875 L 7.84375 -1.390625 C 7.351562 -0.859375 6.835938 -0.46875 6.296875 -0.21875 C 5.765625 0.03125 5.160156 0.15625 4.484375 0.15625 C 3.128906 0.15625 2.082031 -0.234375 1.34375 -1.015625 C 0.601562 -1.796875 0.234375 -2.898438 0.234375 -4.328125 C 0.234375 -5.671875 0.5625 -6.738281 1.21875 -7.53125 C 1.875 -8.332031 2.789062 -8.773438 3.96875 -8.859375 Z M 3.96875 -0.90625 "/></g></g></g><g fill="#f24c3d" fill-opacity="1"><g transform="translate(190.333232, 186.051521)"><g><path d="M 2.828125 -8.703125 C 2.742188 -8.648438 2.675781 -8.582031 2.625 -8.5 C 2.582031 -8.414062 2.5625 -8.335938 2.5625 -8.265625 C 2.5625 -8.066406 2.671875 -7.851562 2.890625 -7.625 C 2.929688 -7.582031 2.96875 -7.546875 3 -7.515625 L 6.453125 -3.890625 C 6.753906 -3.585938 6.976562 -3.273438 7.125 -2.953125 C 7.28125 -2.628906 7.359375 -2.296875 7.359375 -1.953125 C 7.359375 -1.328125 7.132812 -0.84375 6.6875 -0.5 C 6.25 -0.15625 5.628906 0.015625 4.828125 0.015625 C 4.773438 0.015625 4.707031 0.0078125 4.625 0 C 4.539062 0 4.476562 0 4.4375 0 C 4.519531 -0.0507812 4.582031 -0.117188 4.625 -0.203125 C 4.675781 -0.285156 4.703125 -0.367188 4.703125 -0.453125 C 4.703125 -0.648438 4.585938 -0.863281 4.359375 -1.09375 C 4.328125 -1.132812 4.300781 -1.164062 4.28125 -1.1875 L 0.953125 -4.8125 C 0.742188 -5.03125 0.597656 -5.25 0.515625 -5.46875 C 0.441406 -5.695312 0.40625 -6.003906 0.40625 -6.390625 C 0.40625 -7.046875 0.617188 -7.59375 1.046875 -8.03125 C 1.472656 -8.476562 2.003906 -8.703125 2.640625 -8.703125 Z M 6.65625 -5 L 3.171875 -8.703125 L 6.65625 -8.703125 Z M 4.109375 0 L 0.546875 0 L 0.546875 -3.828125 Z M 4.109375 0 "/></g></g></g></svg>