<svg xmlns="http://www.w3.org/2000/svg" xmlns:xlink="http://www.w3.org/1999/xlink" width="320" zoomAndPan="magnify" viewBox="0 0 240 239.999995" height="320" preserveAspectRatio="xMidYMid meet" version="1.0"><defs><clipPath id="260acc359e"><path d="M 90.242188 86.828125 L 149.492188 86.828125 L 149.492188 146.078125 L 90.242188 146.078125 Z M 90.242188 86.828125 " clip-rule="nonzero"/></clipPath></defs><g clip-path="url(#260acc359e)"><path fill="#69b1c8" d="M 134.90625 127.386719 C 133.707031 127.894531 132.402344 128.332031 131.078125 128.671875 C 129.746094 129.011719 128.394531 129.257812 127.097656 129.378906 C 126.253906 129.460938 125.4375 129.492188 124.671875 129.492188 C 125.554688 129.832031 126.476562 130.257812 127.34375 130.765625 C 128.175781 131.25 128.964844 131.792969 129.667969 132.359375 C 130.378906 132.933594 131.003906 133.523438 131.507812 134.085938 C 132.015625 134.644531 132.402344 135.164062 132.65625 135.554688 C 132.917969 135.949219 133.046875 136.207031 133.046875 136.207031 C 133.046875 136.207031 132.761719 136.222656 132.289062 136.195312 C 131.824219 136.164062 131.179688 136.089844 130.4375 135.925781 C 129.699219 135.769531 128.878906 135.527344 128.03125 135.191406 C 127.1875 134.859375 126.316406 134.449219 125.492188 133.96875 C 123.828125 133.019531 122.335938 131.78125 121.324219 130.65625 C 120.820312 130.097656 120.433594 129.574219 120.179688 129.183594 C 120.101562 129.066406 120.042969 128.96875 119.988281 128.878906 C 119.941406 128.867188 119.902344 128.859375 119.867188 128.847656 C 119.835938 128.859375 119.796875 128.867188 119.746094 128.878906 C 119.699219 128.96875 119.636719 129.066406 119.5625 129.183594 C 119.304688 129.574219 118.917969 130.097656 118.410156 130.65625 C 117.402344 131.78125 115.902344 133.019531 114.246094 133.96875 C 113.421875 134.449219 112.550781 134.859375 111.707031 135.191406 C 110.863281 135.527344 110.039062 135.769531 109.300781 135.925781 C 108.566406 136.089844 107.914062 136.164062 107.449219 136.195312 C 106.980469 136.214844 106.691406 136.207031 106.691406 136.207031 C 106.691406 136.207031 106.824219 135.949219 107.078125 135.554688 C 107.335938 135.164062 107.722656 134.644531 108.226562 134.085938 C 108.734375 133.523438 109.359375 132.933594 110.0625 132.359375 C 110.773438 131.792969 111.5625 131.25 112.394531 130.765625 C 113.261719 130.257812 114.175781 129.824219 115.066406 129.492188 C 114.296875 129.492188 113.484375 129.460938 112.636719 129.378906 C 111.34375 129.257812 109.992188 129.011719 108.660156 128.671875 C 107.335938 128.332031 106.023438 127.894531 104.832031 127.386719 C 103.636719 126.871094 102.542969 126.304688 101.621094 125.734375 C 100.707031 125.160156 99.96875 124.589844 99.460938 124.15625 C 99.203125 123.9375 99.011719 123.738281 98.882812 123.617188 C 98.746094 123.488281 98.675781 123.40625 98.675781 123.40625 C 98.675781 123.40625 98.777344 123.375 98.953125 123.324219 C 99.128906 123.28125 99.398438 123.199219 99.722656 123.128906 C 100.375 122.988281 101.296875 122.84375 102.378906 122.777344 C 103.453125 122.714844 104.6875 122.730469 105.980469 122.855469 C 107.28125 122.976562 108.632812 123.222656 109.964844 123.554688 C 111.289062 123.898438 112.59375 124.324219 113.792969 124.832031 C 114.160156 124.992188 114.515625 125.160156 114.855469 125.324219 C 114.640625 125.140625 114.425781 124.953125 114.203125 124.75 C 113.613281 124.222656 113.003906 123.648438 112.40625 123.035156 C 111.199219 121.796875 110.015625 120.414062 108.917969 118.964844 C 107.816406 117.507812 106.808594 115.996094 105.949219 114.496094 C 105.097656 113.003906 104.382812 111.546875 103.847656 110.242188 C 103.316406 108.933594 102.945312 107.78125 102.730469 106.945312 C 102.617188 106.535156 102.558594 106.1875 102.503906 105.960938 C 102.453125 105.730469 102.4375 105.597656 102.4375 105.597656 C 102.4375 105.597656 102.558594 105.648438 102.769531 105.761719 C 102.96875 105.871094 103.289062 106.023438 103.65625 106.246094 C 104.398438 106.679688 105.410156 107.34375 106.519531 108.21875 C 107.632812 109.085938 108.84375 110.167969 110.054688 111.394531 C 111.257812 112.621094 112.441406 114.007812 113.546875 115.460938 C 114.644531 116.90625 115.660156 118.421875 116.519531 119.914062 C 116.882812 120.535156 117.203125 121.15625 117.507812 121.761719 C 117.234375 120.511719 116.996094 119.148438 116.816406 117.710938 C 116.558594 115.65625 116.4375 113.460938 116.4375 111.269531 C 116.445312 109.074219 116.570312 106.878906 116.828125 104.824219 C 117.085938 102.765625 117.464844 100.847656 117.890625 99.199219 C 118.3125 97.558594 118.796875 96.1875 119.183594 95.222656 C 119.570312 94.265625 119.867188 93.71875 119.867188 93.71875 C 119.867188 93.71875 120.167969 94.265625 120.550781 95.222656 C 120.945312 96.1875 121.425781 97.558594 121.851562 99.199219 C 122.277344 100.847656 122.65625 102.765625 122.910156 104.824219 C 123.171875 106.878906 123.292969 109.074219 123.304688 111.269531 C 123.304688 113.460938 123.175781 115.65625 122.917969 117.710938 C 122.746094 119.140625 122.503906 120.511719 122.234375 121.761719 C 122.535156 121.15625 122.863281 120.535156 123.21875 119.914062 C 124.082031 118.421875 125.09375 116.90625 126.191406 115.460938 C 127.300781 114.007812 128.480469 112.621094 129.683594 111.394531 C 130.894531 110.167969 132.105469 109.085938 133.214844 108.21875 C 134.328125 107.34375 135.339844 106.679688 136.085938 106.246094 C 136.449219 106.023438 136.769531 105.871094 136.976562 105.761719 C 137.179688 105.648438 137.300781 105.597656 137.300781 105.597656 C 137.300781 105.597656 137.285156 105.730469 137.238281 105.960938 C 137.179688 106.1875 137.121094 106.535156 137.007812 106.945312 C 136.789062 107.78125 136.429688 108.933594 135.890625 110.242188 C 135.355469 111.546875 134.640625 113.003906 133.789062 114.496094 C 132.933594 115.996094 131.917969 117.507812 130.824219 118.964844 C 129.722656 120.414062 128.542969 121.796875 127.332031 123.035156 C 126.734375 123.648438 126.128906 124.222656 125.539062 124.75 C 125.320312 124.953125 125.101562 125.140625 124.882812 125.324219 C 125.222656 125.160156 125.582031 124.992188 125.949219 124.832031 C 127.144531 124.324219 128.449219 123.898438 129.777344 123.554688 C 131.109375 123.222656 132.460938 122.976562 133.753906 122.855469 C 135.054688 122.730469 136.289062 122.714844 137.363281 122.777344 C 138.441406 122.84375 139.363281 122.988281 140.019531 123.128906 C 140.347656 123.199219 140.609375 123.28125 140.789062 123.324219 C 140.960938 123.375 141.0625 123.40625 141.0625 123.40625 C 141.0625 123.40625 141 123.488281 140.863281 123.617188 C 140.726562 123.738281 140.535156 123.9375 140.277344 124.15625 C 139.773438 124.589844 139.03125 125.160156 138.117188 125.734375 C 137.195312 126.304688 136.101562 126.871094 134.90625 127.386719 Z M 119.867188 86.828125 C 103.535156 86.828125 90.242188 100.117188 90.242188 116.453125 C 90.242188 132.785156 103.535156 146.078125 119.867188 146.078125 C 136.207031 146.078125 149.492188 132.785156 149.492188 116.453125 C 149.492188 100.121094 136.207031 86.828125 119.867188 86.828125 " fill-opacity="1" fill-rule="nonzero"/></g></svg>